<?xml version="1.0" standalone="no"?>
<!DOCTYPE svg PUBLIC "-//W3C//DTD SVG 20010904//EN"
 "http://www.w3.org/TR/2001/REC-SVG-20010904/DTD/svg10.dtd">
<svg version="1.0" xmlns="http://www.w3.org/2000/svg"
 width="728.000000pt" height="1280.000000pt" viewBox="0 0 728.000000 1280.000000"
 preserveAspectRatio="xMidYMid meet">
<g transform="translate(0.000000,1280.000000) scale(0.100000,-0.100000)"
fill="#000000" stroke="none">
<path d="M2820 12789 c-151 -4 -480 -13 -730 -19 -994 -24 -1668 -68 -1853
-122 -29 -9 -42 -20 -52 -45 -36 -85 -72 -508 -95 -1108 -5 -143 -12 -312 -15
-375 -11 -249 -35 -1283 -45 -1995 -6 -412 -15 -1042 -20 -1400 -13 -828 -13
-1832 0 -2660 5 -357 14 -987 20 -1400 10 -712 33 -1736 45 -1985 3 -63 10
-239 16 -390 16 -429 44 -837 70 -997 5 -35 7 -74 3 -88 -5 -21 -1 -27 22 -36
73 -28 309 -59 584 -79 85 -5 182 -12 215 -15 139 -11 720 -35 1115 -45 234
-6 587 -15 785 -20 458 -13 1019 -13 1485 0 201 5 554 14 785 20 887 23 1581
67 1823 116 119 24 116 21 135 137 31 185 57 541 77 1032 5 143 12 314 15 380
12 268 35 1285 45 1990 6 413 15 1043 20 1400 6 358 10 954 10 1325 0 371 -4
968 -10 1325 -5 358 -14 988 -20 1400 -10 711 -33 1735 -45 1985 -3 63 -10
237 -15 385 -18 463 -48 878 -75 1019 -7 38 -10 77 -8 86 7 25 -22 38 -120 56
-263 46 -891 83 -1762 104 -242 6 -602 15 -800 20 -404 11 -1190 11 -1605 -1z
m-2520 -208 c208 -45 931 -87 1915 -112 552 -14 2323 -14 2875 0 933 24 1602
62 1876 106 49 8 90 12 93 10 2 -3 -3 -67 -12 -142 -136 -1137 -189 -6704 -97
-10128 28 -1036 65 -1751 104 -1996 15 -95 14 -96 -66 -80 -631 128 -3631 180
-5543 96 -553 -25 -971 -57 -1137 -89 -40 -8 -77 -11 -81 -7 -4 4 -3 37 2 72
135 856 194 6740 101 10184 -28 1049 -67 1788 -105 2009 -15 85 -13 100 13 92
10 -3 37 -10 62 -15z"/>
<path d="M2920 11810 c-917 -18 -1625 -68 -1804 -128 -47 -16 -51 -20 -64 -62
-57 -197 -100 -711 -122 -1455 -36 -1244 40 -2724 145 -2829 21 -21 127 -43
316 -65 1028 -123 3669 -115 4544 14 145 22 191 39 221 84 58 89 100 435 136
1136 17 329 17 1672 0 2005 -36 709 -83 1091 -142 1150 -59 59 -623 113 -1455
139 -464 15 -1318 20 -1775 11z m3171 -256 c-40 -157 -79 -601 -102 -1164 -13
-342 -13 -1429 0 -1765 24 -588 62 -1009 106 -1175 8 -30 12 -56 9 -59 -2 -2
-46 3 -97 12 -672 123 -2934 156 -4257 61 -186 -13 -391 -35 -562 -60 -56 -8
-54 -13 -33 100 73 383 119 1571 97 2508 -17 720 -52 1249 -97 1484 -21 110
-22 108 23 100 713 -123 2991 -155 4307 -60 204 15 490 47 564 63 47 10 55 2
42 -45z"/>
<path d="M5965 6916 c-349 -87 -477 -527 -229 -786 98 -103 206 -150 345 -150
304 0 530 275 468 572 -26 126 -124 260 -236 320 -100 55 -236 72 -348 44z"/>
<path d="M2910 5504 c-759 -15 -1508 -65 -1725 -115 -113 -26 -133 -56 -164
-240 -144 -849 -125 -3524 29 -4023 17 -54 25 -66 54 -80 119 -56 569 -102
1376 -138 361 -16 1855 -16 2205 0 566 26 964 56 1165 88 185 29 241 51 265
101 56 118 110 620 135 1267 22 553 12 1620 -21 2116 -31 481 -85 839 -131
878 -61 50 -500 95 -1228 127 -323 14 -1590 26 -1960 19z m-1710 -214 c48 -12
344 -47 515 -60 534 -39 1021 -53 1880 -53 1125 0 1804 29 2313 99 62 9 115
14 117 12 3 -2 -4 -50 -15 -106 -64 -328 -98 -886 -107 -1737 -10 -969 31
-1818 107 -2209 11 -55 16 -104 12 -108 -4 -4 -25 -3 -47 2 -192 45 -686 86
-1345 112 -407 16 -1681 16 -2095 0 -671 -26 -1208 -72 -1374 -118 -23 -7 -24
-6 -18 32 50 327 67 503 87 869 61 1151 16 2767 -90 3219 -13 59 -6 64 60 46z"/>
</g>
</svg>
